<svg version="1.1" id="Layer_1" xmlns="http://www.w3.org/2000/svg" xmlns:xlink="http://www.w3.org/1999/xlink" x="0px" y="0px"
	 width="100%" viewBox="0 0 363 251" enable-background="new 0 0 363 251" xml:space="preserve">
<path fill="#FEFEFE" opacity="1.000000" stroke="none" 
	d="
M266.000000,252.000000 
	C177.333359,252.000000 89.166718,252.000000 1.000059,252.000000 
	C1.000039,168.333389 1.000039,84.666771 1.000020,1.000115 
	C121.999908,1.000077 242.999817,1.000077 363.999817,1.000038 
	C363.999878,84.666557 363.999878,168.333115 363.999939,251.999832 
	C331.500000,252.000000 299.000000,252.000000 266.000000,252.000000 
M182.175095,65.040901 
	C175.104340,53.077873 168.007172,41.130356 160.971619,29.146660 
	C155.798279,20.334892 150.705612,11.475760 145.043457,1.718307 
	C97.814911,83.409653 51.069111,164.265991 4.323308,245.122314 
	C4.642120,245.519653 4.960932,245.916992 5.279745,246.314331 
	C7.607244,245.575348 9.985382,244.965546 12.254001,244.076324 
	C26.559080,238.469177 40.850243,232.826111 55.125710,227.143936 
	C69.433357,221.448959 83.717323,215.694473 98.560898,210.568222 
	C91.721207,222.573975 84.881516,234.579727 78.041824,246.585495 
	C78.240631,246.921661 78.439438,247.257843 78.638245,247.594025 
	C112.580421,233.686249 146.522614,219.778473 181.304245,205.526733 
	C171.494446,201.384308 162.683640,197.663712 153.403900,193.745117 
	C162.453903,178.171707 171.243546,163.046310 180.584885,148.335556 
	C188.432297,161.737823 196.279709,175.140076 204.432678,189.064194 
	C195.042191,192.987091 186.257462,196.656937 177.581558,200.281326 
	C213.341782,216.119034 249.031754,231.925629 284.721710,247.732224 
	C285.106323,247.531830 285.490936,247.331436 285.875549,247.131042 
	C279.440643,232.801208 270.236053,219.906708 263.823303,205.931442 
	C264.460846,206.095734 265.135803,206.175018 265.730591,206.436523 
	C291.836761,217.914673 317.938141,229.403687 344.033875,240.905624 
	C349.547607,243.335861 355.037292,245.820663 360.538055,248.280334 
	C360.900452,247.901184 361.262848,247.522034 361.625275,247.142883 
	C314.413849,165.521332 267.202423,83.899780 219.656113,1.699239 
	C207.157852,23.274672 195.009033,44.246891 182.175095,65.040901 
z"/>
<path fill="#0490B1" opacity="1.000000" stroke="none" 
	d="
M263.073517,205.953964 
	C270.236053,219.906708 279.440643,232.801208 285.875549,247.131042 
	C285.490936,247.331436 285.106323,247.531830 284.721710,247.732224 
	C249.031754,231.925629 213.341782,216.119034 177.581558,200.281326 
	C186.257462,196.656937 195.042191,192.987091 204.432678,189.064194 
	C196.279709,175.140076 188.432297,161.737823 180.252823,147.783859 
	C175.250122,139.097382 170.666367,130.910980 165.874435,122.848289 
	C163.234741,118.406868 160.245163,114.173386 157.364624,109.474396 
	C153.437408,101.773933 149.558853,94.445229 145.211517,86.230728 
	C124.333893,122.337791 104.222816,157.119125 83.763237,192.503189 
	C91.304596,195.238098 98.105438,197.704453 105.149605,200.395203 
	C107.094246,201.538635 108.795570,202.457642 111.500748,203.918915 
	C106.778946,205.896484 102.923965,207.511017 98.809647,209.185150 
	C98.351631,209.517517 98.152954,209.790298 97.949669,210.027618 
	C97.945053,209.992142 98.011665,209.966064 98.011665,209.966064 
	C83.717323,215.694473 69.433357,221.448959 55.125710,227.143936 
	C40.850243,232.826111 26.559080,238.469177 12.254001,244.076324 
	C9.985382,244.965546 7.607244,245.575348 5.279745,246.314331 
	C4.960932,245.916992 4.642120,245.519653 4.323308,245.122314 
	C51.069111,164.265991 97.814911,83.409653 145.043457,1.718307 
	C150.705612,11.475760 155.798279,20.334892 160.971619,29.146660 
	C168.007172,41.130356 175.104340,53.077873 182.574036,65.482086 
	C183.209366,66.709709 183.304688,67.577202 183.703094,68.270554 
	C190.717010,80.476707 197.767883,92.661621 204.921265,105.205002 
	C218.217300,128.436630 231.436066,151.295334 244.571213,174.201981 
	C249.512375,182.818970 254.259598,191.547165 259.050415,200.523697 
	C258.528168,201.544220 258.050720,202.265701 257.627533,202.905212 
	C259.699371,204.065063 261.386444,205.009506 263.073517,205.953964 
z"/>
<path fill="#204264" opacity="1.000000" stroke="none" 
	d="
M263.448425,205.942703 
	C261.386444,205.009506 259.699371,204.065063 257.627533,202.905212 
	C258.050720,202.265701 258.528168,201.544220 259.439148,200.669891 
	C267.945892,197.468353 276.019073,194.419662 284.405090,191.252853 
	C262.597534,153.565018 241.309616,116.775208 219.674057,79.384613 
	C214.471329,88.298866 209.641037,96.575005 204.810745,104.851135 
	C197.767883,92.661621 190.717010,80.476707 183.703094,68.270554 
	C183.304688,67.577202 183.209366,66.709709 182.916595,65.571190 
	C195.009033,44.246891 207.157852,23.274672 219.656113,1.699239 
	C267.202423,83.899780 314.413849,165.521332 361.625275,247.142883 
	C361.262848,247.522034 360.900452,247.901184 360.538055,248.280334 
	C355.037292,245.820663 349.547607,243.335861 344.033875,240.905624 
	C317.938141,229.403687 291.836761,217.914673 265.730591,206.436523 
	C265.135803,206.175018 264.460846,206.095734 263.448425,205.942703 
z"/>
<path fill="#214264" opacity="1.000000" stroke="none" 
	d="
M157.413315,109.846161 
	C160.245163,114.173386 163.234741,118.406868 165.874435,122.848289 
	C170.666367,130.910980 175.250122,139.097382 179.976974,147.576538 
	C171.243546,163.046310 162.453903,178.171707 153.403900,193.745117 
	C162.683640,197.663712 171.494446,201.384308 181.304245,205.526733 
	C146.522614,219.778473 112.580421,233.686249 78.638245,247.594025 
	C78.439438,247.257843 78.240631,246.921661 78.041824,246.585495 
	C84.881516,234.579727 91.721207,222.573975 98.286285,210.267151 
	C98.011665,209.966064 97.945053,209.992142 98.259010,210.162323 
	C98.738312,209.930176 98.903648,209.527863 99.068985,209.125549 
	C102.923965,207.511017 106.778946,205.896484 111.500748,203.918915 
	C108.795570,202.457642 107.094246,201.538635 105.296219,200.061630 
	C115.029808,182.514420 124.828423,165.506744 134.700699,148.541946 
	C142.223145,135.615173 149.839005,122.742760 157.413315,109.846161 
z"/>
<path fill="#FBFCFC" opacity="1.000000" stroke="none" 
	d="
M204.921265,105.205002 
	C209.641037,96.575005 214.471329,88.298866 219.674057,79.384613 
	C241.309616,116.775208 262.597534,153.565018 284.405090,191.252853 
	C276.019073,194.419662 267.945892,197.468353 259.483948,200.370850 
	C254.259598,191.547165 249.512375,182.818970 244.571213,174.201981 
	C231.436066,151.295334 218.217300,128.436630 204.921265,105.205002 
z"/>
<path fill="#FAFCFC" opacity="1.000000" stroke="none" 
	d="
M157.364624,109.474403 
	C149.839005,122.742760 142.223145,135.615173 134.700699,148.541946 
	C124.828423,165.506744 115.029808,182.514420 105.052902,199.837219 
	C98.105438,197.704453 91.304596,195.238098 83.763237,192.503189 
	C104.222816,157.119125 124.333893,122.337791 145.211517,86.230728 
	C149.558853,94.445229 153.437408,101.773933 157.364624,109.474403 
z"/>
<path fill="#FEFEFE" opacity="1.000000" stroke="none" 
	d="
M98.809647,209.185150 
	C98.903648,209.527863 98.738312,209.930176 98.263626,210.197784 
	C98.152954,209.790298 98.351631,209.517517 98.809647,209.185150 
z"/>
</svg>